<svg xmlns="http://www.w3.org/2000/svg" width="24" height="24" viewBox="0 0 24 24" fill="none" stroke="currentColor" stroke-width="1.85" stroke-linecap="round" stroke-linejoin="round">
  <path d="M4.4 9V6.4A2.4 2.4 0 0 1 6.8 4h2.6"/>
  <path d="M19.6 9V6.4A2.4 2.4 0 0 0 17.2 4h-2.6"/>
  <path d="M4.4 15v2.6A2.4 2.4 0 0 0 6.8 20h2.1"/>
  <path d="M19.6 15v2.6a2.4 2.4 0 0 1-2.4 2.4h-2.1"/>
  <path d="M9.1 19.3v-7.1a1.2 1.2 0 0 1 2.4 0v2.45"/>
  <path d="M11.5 14.65v-5.1a1.18 1.18 0 1 1 2.36 0v4.1"/>
  <path d="M13.86 13.65v-3.15a1.16 1.16 0 1 1 2.32 0v4.1"/>
  <path d="M16.18 14.6v-1.75a1.13 1.13 0 1 1 2.26 0v3.9c0 2.15-1.72 3.95-3.88 3.95h-1.3c-1.2 0-2.3-.54-3.05-1.47L8.4 17.02a1.32 1.32 0 0 1 .18-1.76 1.25 1.25 0 0 1 1.78.13l1.14 1.2"/>
  <path d="M7 8.2h.01M17 8.2h.01" stroke-width="2.5"/>
</svg>