<svg xmlns="http://www.w3.org/2000/svg" fill="none" stroke="currentColor" stroke-width="1.9" stroke-linecap="round" stroke-linejoin="round" viewBox="0 0 24 24"><circle cx="12" cy="12" r="3"/><path d="M19.4 15a1.8 1.8 0 0 0 .4 2l.1.1-2.2 2.2-.1-.1a1.8 1.8 0 0 0-2-.4 1.8 1.8 0 0 0-1.1 1.7v.2h-3v-.2A1.8 1.8 0 0 0 10.4 19a1.8 1.8 0 0 0-2 .4l-.1.1-2.2-2.2.1-.1a1.8 1.8 0 0 0 .4-2 1.8 1.8 0 0 0-1.7-1.1h-.2v-3h.2A1.8 1.8 0 0 0 6.6 10a1.8 1.8 0 0 0-.4-2l-.1-.1 2.2-2.2.1.1a1.8 1.8 0 0 0 2 .4 1.8 1.8 0 0 0 1.1-1.7v-.2h3v.2A1.8 1.8 0 0 0 15.6 6a1.8 1.8 0 0 0 2-.4l.1-.1 2.2 2.2-.1.1a1.8 1.8 0 0 0-.4 2 1.8 1.8 0 0 0 1.7 1.1h.2v3h-.2a1.8 1.8 0 0 0-1.7 1.1Z"/></svg>
