<?xml version="1.0" standalone="no"?>
<!DOCTYPE svg PUBLIC "-//W3C//DTD SVG 20010904//EN"
 "http://www.w3.org/TR/2001/REC-SVG-20010904/DTD/svg10.dtd">
<svg version="1.0" xmlns="http://www.w3.org/2000/svg"
 width="800.000000pt" height="800.000000pt" viewBox="0 0 800.000000 800.000000"
 preserveAspectRatio="xMidYMid meet">

<g transform="translate(0.000000,800.000000) scale(0.100000,-0.100000)"
fill="#000000" stroke="none">
<path d="M4216 7985 c-106 -27 -184 -73 -272 -160 -60 -60 -90 -99 -117 -155
-42 -85 -77 -212 -77 -277 0 -23 -2 -43 -5 -43 -3 0 -25 15 -49 34 -153 116
-323 142 -510 78 -222 -76 -345 -206 -409 -431 l-22 -76 -3 -1490 c-2 -1109 1
-1497 9 -1518 36 -86 175 -94 222 -13 9 16 13 368 17 1496 5 1358 6 1479 22
1525 44 127 120 193 250 216 180 32 358 -64 441 -239 l32 -67 5 -1205 c4 -916
8 -1210 17 -1226 31 -55 122 -75 176 -39 61 39 57 -60 57 1537 0 1283 2 1471
15 1523 33 123 105 213 213 263 47 22 72 26 137 27 69 0 89 -5 147 -32 76 -36
155 -108 187 -171 53 -104 51 -32 51 -1740 0 -1728 -4 -1618 57 -1657 35 -23
101 -23 136 0 61 39 57 -53 57 1463 0 897 4 1408 10 1443 23 121 104 229 208
277 47 22 71 27 143 27 78 0 91 -3 161 -38 103 -51 170 -127 212 -242 7 -21
12 -405 16 -1273 l5 -1244 37 -34 c31 -28 45 -34 83 -34 38 0 52 6 83 34 l37
34 2 821 1 820 26 56 c33 73 115 158 185 192 50 25 67 28 156 28 87 0 107 -3
157 -27 108 -50 181 -140 213 -263 13 -52 15 -291 15 -2030 0 -1661 -3 -1986
-15 -2071 -78 -548 -296 -1018 -620 -1339 -128 -127 -256 -218 -420 -300 -296
-146 -605 -205 -1010 -191 -755 25 -1353 220 -1810 589 -99 80 -263 249 -332
342 -74 98 -83 114 -700 1254 -605 1117 -593 1091 -593 1256 0 143 42 234 146
314 107 83 221 111 318 76 103 -36 112 -47 648 -755 281 -371 523 -688 537
-704 39 -43 83 -59 131 -46 57 15 90 60 90 120 0 47 -1 49 -521 736 -316 419
-545 713 -584 750 -69 65 -166 122 -254 148 -71 21 -211 21 -282 0 -223 -66
-408 -249 -464 -459 -32 -121 -17 -334 34 -479 17 -49 1082 -2026 1190 -2209
145 -247 408 -511 688 -693 390 -254 837 -403 1403 -471 185 -22 680 -25 815
-5 431 64 776 218 1065 475 346 308 611 793 733 1347 60 268 57 148 57 2324 0
1810 -2 2004 -16 2069 -54 238 -229 424 -454 482 -117 30 -324 16 -435 -31
-18 -7 -47 -25 -64 -40 l-31 -26 0 210 c0 176 -3 221 -20 286 -101 397 -534
610 -883 435 -34 -17 -70 -38 -80 -47 -9 -8 -19 -13 -20 -11 -2 2 -15 37 -30
77 -68 189 -217 333 -414 403 -78 28 -254 35 -337 14z"/>
</g>
</svg>
