<?xml version='1.0' encoding='UTF-8'?>
<svg width="36mm" height="36mm" version="1.1" viewBox="0 0 36 36" fill_color="#141529" back_color="#ffffff" xmlns="http://www.w3.org/2000/svg"><path d="M3.2,3.2H4V4H3.2zM4,3.2H4.8V4H4zM4.8,3.2H5.6V4H4.8zM5.6,3.2H6.4V4H5.6zM6.4,3.2H7.2V4H6.4zM7.2,3.2H8V4H7.2zM8,3.2H8.8V4H8zM9.6,3.2H10.4V4H9.6zM11.2,3.2H12V4H11.2zM12,3.2H12.8V4H12zM12.8,3.2H13.6V4H12.8zM13.6,3.2H14.4V4H13.6zM14.4,3.2H15.2V4H14.4zM16,3.2H16.8V4H16zM16.8,3.2H17.6V4H16.8zM17.6,3.2H18.4V4H17.6zM18.4,3.2H19.2V4H18.4zM20,3.2H20.8V4H20zM20.8,3.2H21.6V4H20.8zM22.4,3.2H23.2V4H22.4zM23.2,3.2H24V4H23.2zM24,3.2H24.8V4H24zM25.6,3.2H26.4V4H25.6zM27.2,3.2H28V4H27.2zM28,3.2H28.8V4H28zM28.8,3.2H29.6V4H28.8zM29.6,3.2H30.4V4H29.6zM30.4,3.2H31.2V4H30.4zM31.2,3.2H32V4H31.2zM32,3.2H32.8V4H32zM3.2,4H4V4.8H3.2zM8,4H8.8V4.8H8zM12,4H12.8V4.8H12zM13.6,4H14.4V4.8H13.6zM14.4,4H15.2V4.8H14.4zM16.8,4H17.6V4.8H16.8zM19.2,4H20V4.8H19.2zM20.8,4H21.6V4.8H20.8zM23.2,4H24V4.8H23.2zM24.8,4H25.6V4.8H24.8zM27.2,4H28V4.8H27.2zM32,4H32.8V4.8H32zM3.2,4.8H4V5.6H3.2zM4.8,4.8H5.6V5.6H4.8zM5.6,4.8H6.4V5.6H5.6zM6.4,4.8H7.2V5.6H6.4zM8,4.8H8.8V5.6H8zM10.4,4.8H11.2V5.6H10.4zM11.2,4.8H12V5.6H11.2zM12,4.8H12.8V5.6H12zM12.8,4.8H13.6V5.6H12.8zM14.4,4.8H15.2V5.6H14.4zM16.8,4.8H17.6V5.6H16.8zM18.4,4.8H19.2V5.6H18.4zM19.2,4.8H20V5.6H19.2zM20,4.8H20.8V5.6H20zM21.6,4.8H22.4V5.6H21.6zM27.2,4.8H28V5.6H27.2zM28.8,4.8H29.6V5.6H28.8zM29.6,4.8H30.4V5.6H29.6zM30.4,4.8H31.2V5.6H30.4zM32,4.8H32.8V5.6H32zM3.2,5.6H4V6.4H3.2zM4.8,5.6H5.6V6.4H4.8zM5.6,5.6H6.4V6.4H5.6zM6.4,5.6H7.2V6.4H6.4zM8,5.6H8.8V6.4H8zM9.6,5.6H10.4V6.4H9.6zM11.2,5.6H12V6.4H11.2zM12.8,5.6H13.6V6.4H12.8zM13.6,5.6H14.4V6.4H13.6zM15.2,5.6H16V6.4H15.2zM16,5.6H16.8V6.4H16zM17.6,5.6H18.4V6.4H17.6zM18.4,5.6H19.2V6.4H18.4zM20.8,5.6H21.6V6.4H20.8zM21.6,5.6H22.4V6.4H21.6zM23.2,5.6H24V6.4H23.2zM24,5.6H24.8V6.4H24zM27.2,5.6H28V6.4H27.2zM28.8,5.6H29.6V6.4H28.8zM29.6,5.6H30.4V6.4H29.6zM30.4,5.6H31.2V6.4H30.4zM32,5.6H32.8V6.4H32zM3.2,6.4H4V7.2H3.2zM4.8,6.4H5.6V7.2H4.8zM5.6,6.4H6.4V7.2H5.6zM6.4,6.4H7.2V7.2H6.4zM8,6.4H8.8V7.2H8zM9.6,6.4H10.4V7.2H9.6zM10.4,6.4H11.2V7.2H10.4zM12.8,6.4H13.6V7.2H12.8zM15.2,6.4H16V7.2H15.2zM16,6.4H16.8V7.2H16zM17.6,6.4H18.4V7.2H17.6zM19.2,6.4H20V7.2H19.2zM20,6.4H20.8V7.2H20zM21.6,6.4H22.4V7.2H21.6zM23.2,6.4H24V7.2H23.2zM24,6.4H24.8V7.2H24zM24.8,6.4H25.6V7.2H24.8zM25.6,6.4H26.4V7.2H25.6zM27.2,6.4H28V7.2H27.2zM28.8,6.4H29.6V7.2H28.8zM29.6,6.4H30.4V7.2H29.6zM30.4,6.4H31.2V7.2H30.4zM32,6.4H32.8V7.2H32zM3.2,7.2H4V8H3.2zM8,7.2H8.8V8H8zM9.6,7.2H10.4V8H9.6zM10.4,7.2H11.2V8H10.4zM13.6,7.2H14.4V8H13.6zM14.4,7.2H15.2V8H14.4zM15.2,7.2H16V8H15.2zM16,7.2H16.8V8H16zM17.6,7.2H18.4V8H17.6zM18.4,7.2H19.2V8H18.4zM20,7.2H20.8V8H20zM20.8,7.2H21.6V8H20.8zM23.2,7.2H24V8H23.2zM24,7.2H24.8V8H24zM25.6,7.2H26.4V8H25.6zM27.2,7.2H28V8H27.2zM32,7.2H32.8V8H32zM3.2,8H4V8.8H3.2zM4,8H4.8V8.8H4zM4.8,8H5.6V8.8H4.8zM5.6,8H6.4V8.8H5.6zM6.4,8H7.2V8.8H6.4zM7.2,8H8V8.8H7.2zM8,8H8.8V8.8H8zM9.6,8H10.4V8.8H9.6zM11.2,8H12V8.8H11.2zM12.8,8H13.6V8.8H12.8zM14.4,8H15.2V8.8H14.4zM16,8H16.8V8.8H16zM17.6,8H18.4V8.8H17.6zM19.2,8H20V8.8H19.2zM20.8,8H21.6V8.8H20.8zM22.4,8H23.2V8.8H22.4zM24,8H24.8V8.8H24zM25.6,8H26.4V8.8H25.6zM27.2,8H28V8.8H27.2zM28,8H28.8V8.8H28zM28.8,8H29.6V8.8H28.8zM29.6,8H30.4V8.8H29.6zM30.4,8H31.2V8.8H30.4zM31.2,8H32V8.8H31.2zM32,8H32.8V8.8H32zM9.6,8.8H10.4V9.6H9.6zM12,8.8H12.8V9.6H12zM12.8,8.8H13.6V9.6H12.8zM14.4,8.8H15.2V9.6H14.4zM15.2,8.8H16V9.6H15.2zM16,8.8H16.8V9.6H16zM16.8,8.8H17.6V9.6H16.8zM17.6,8.8H18.4V9.6H17.6zM18.4,8.8H19.2V9.6H18.4zM19.2,8.8H20V9.6H19.2zM20.8,8.8H21.6V9.6H20.8zM22.4,8.8H23.2V9.6H22.4zM24,8.8H24.8V9.6H24zM25.6,8.8H26.4V9.6H25.6zM3.2,9.6H4V10.4H3.2zM6.4,9.6H7.2V10.4H6.4zM8,9.6H8.8V10.4H8zM8.8,9.6H9.6V10.4H8.8zM9.6,9.6H10.4V10.4H9.6zM10.4,9.6H11.2V10.4H10.4zM11.2,9.6H12V10.4H11.2zM12,9.6H12.8V10.4H12zM13.6,9.6H14.4V10.4H13.6zM14.4,9.6H15.2V10.4H14.4zM17.6,9.6H18.4V10.4H17.6zM18.4,9.6H19.2V10.4H18.4zM20.8,9.6H21.6V10.4H20.8zM21.6,9.6H22.4V10.4H21.6zM22.4,9.6H23.2V10.4H22.4zM23.2,9.6H24V10.4H23.2zM24,9.6H24.8V10.4H24zM25.6,9.6H26.4V10.4H25.6zM26.4,9.6H27.2V10.4H26.4zM27.2,9.6H28V10.4H27.2zM28,9.6H28.8V10.4H28zM28.8,9.6H29.6V10.4H28.8zM29.6,9.6H30.4V10.4H29.6zM32,9.6H32.8V10.4H32zM4,10.4H4.8V11.2H4zM4.8,10.4H5.6V11.2H4.8zM5.6,10.4H6.4V11.2H5.6zM6.4,10.4H7.2V11.2H6.4zM7.2,10.4H8V11.2H7.2zM8.8,10.4H9.6V11.2H8.8zM10.4,10.4H11.2V11.2H10.4zM12.8,10.4H13.6V11.2H12.8zM13.6,10.4H14.4V11.2H13.6zM14.4,10.4H15.2V11.2H14.4zM16,10.4H16.8V11.2H16zM16.8,10.4H17.6V11.2H16.8zM18.4,10.4H19.2V11.2H18.4zM19.2,10.4H20V11.2H19.2zM20,10.4H20.8V11.2H20zM23.2,10.4H24V11.2H23.2zM26.4,10.4H27.2V11.2H26.4zM27.2,10.4H28V11.2H27.2zM28,10.4H28.8V11.2H28zM28.8,10.4H29.6V11.2H28.8zM31.2,10.4H32V11.2H31.2zM3.2,11.2H4V12H3.2zM4.8,11.2H5.6V12H4.8zM6.4,11.2H7.2V12H6.4zM8,11.2H8.8V12H8zM8.8,11.2H9.6V12H8.8zM9.6,11.2H10.4V12H9.6zM10.4,11.2H11.2V12H10.4zM12,11.2H12.8V12H12zM12.8,11.2H13.6V12H12.8zM16,11.2H16.8V12H16zM16.8,11.2H17.6V12H16.8zM19.2,11.2H20V12H19.2zM24.8,11.2H25.6V12H24.8zM28,11.2H28.8V12H28zM30.4,11.2H31.2V12H30.4zM4,12H4.8V12.8H4zM7.2,12H8V12.8H7.2zM8.8,12H9.6V12.8H8.8zM12,12H12.8V12.8H12zM12.8,12H13.6V12.8H12.8zM16.8,12H17.6V12.8H16.8zM17.6,12H18.4V12.8H17.6zM20,12H20.8V12.8H20zM22.4,12H23.2V12.8H22.4zM24,12H24.8V12.8H24zM24.8,12H25.6V12.8H24.8zM25.6,12H26.4V12.8H25.6zM27.2,12H28V12.8H27.2zM29.6,12H30.4V12.8H29.6zM30.4,12H31.2V12.8H30.4zM31.2,12H32V12.8H31.2zM3.2,12.8H4V13.6H3.2zM4,12.8H4.8V13.6H4zM5.6,12.8H6.4V13.6H5.6zM6.4,12.8H7.2V13.6H6.4zM7.2,12.8H8V13.6H7.2zM8,12.8H8.8V13.6H8zM8.8,12.8H9.6V13.6H8.8zM9.6,12.8H10.4V13.6H9.6zM10.4,12.8H11.2V13.6H10.4zM12,12.8H12.8V13.6H12zM12.8,12.8H13.6V13.6H12.8zM13.6,12.8H14.4V13.6H13.6zM15.2,12.8H16V13.6H15.2zM16,12.8H16.8V13.6H16zM16.8,12.8H17.6V13.6H16.8zM18.4,12.8H19.2V13.6H18.4zM19.2,12.8H20V13.6H19.2zM20,12.8H20.8V13.6H20zM20.8,12.8H21.6V13.6H20.8zM21.6,12.8H22.4V13.6H21.6zM22.4,12.8H23.2V13.6H22.4zM25.6,12.8H26.4V13.6H25.6zM26.4,12.8H27.2V13.6H26.4zM27.2,12.8H28V13.6H27.2zM29.6,12.8H30.4V13.6H29.6zM31.2,12.8H32V13.6H31.2zM32,12.8H32.8V13.6H32zM3.2,13.6H4V14.4H3.2zM5.6,13.6H6.4V14.4H5.6zM6.4,13.6H7.2V14.4H6.4zM10.4,13.6H11.2V14.4H10.4zM12,13.6H12.8V14.4H12zM12.8,13.6H13.6V14.4H12.8zM16.8,13.6H17.6V14.4H16.8zM17.6,13.6H18.4V14.4H17.6zM20.8,13.6H21.6V14.4H20.8zM21.6,13.6H22.4V14.4H21.6zM24,13.6H24.8V14.4H24zM24.8,13.6H25.6V14.4H24.8zM25.6,13.6H26.4V14.4H25.6zM26.4,13.6H27.2V14.4H26.4zM28.8,13.6H29.6V14.4H28.8zM29.6,13.6H30.4V14.4H29.6zM32,13.6H32.8V14.4H32zM4,14.4H4.8V15.2H4zM4.8,14.4H5.6V15.2H4.8zM6.4,14.4H7.2V15.2H6.4zM7.2,14.4H8V15.2H7.2zM8,14.4H8.8V15.2H8zM12.8,14.4H13.6V15.2H12.8zM13.6,14.4H14.4V15.2H13.6zM14.4,14.4H15.2V15.2H14.4zM15.2,14.4H16V15.2H15.2zM17.6,14.4H18.4V15.2H17.6zM20,14.4H20.8V15.2H20zM20.8,14.4H21.6V15.2H20.8zM21.6,14.4H22.4V15.2H21.6zM22.4,14.4H23.2V15.2H22.4zM23.2,14.4H24V15.2H23.2zM24,14.4H24.8V15.2H24zM24.8,14.4H25.6V15.2H24.8zM25.6,14.4H26.4V15.2H25.6zM27.2,14.4H28V15.2H27.2zM28,14.4H28.8V15.2H28zM28.8,14.4H29.6V15.2H28.8zM29.6,14.4H30.4V15.2H29.6zM30.4,14.4H31.2V15.2H30.4zM32,14.4H32.8V15.2H32zM3.2,15.2H4V16H3.2zM4,15.2H4.8V16H4zM4.8,15.2H5.6V16H4.8zM5.6,15.2H6.4V16H5.6zM6.4,15.2H7.2V16H6.4zM10.4,15.2H11.2V16H10.4zM11.2,15.2H12V16H11.2zM12,15.2H12.8V16H12zM12.8,15.2H13.6V16H12.8zM14.4,15.2H15.2V16H14.4zM15.2,15.2H16V16H15.2zM16,15.2H16.8V16H16zM18.4,15.2H19.2V16H18.4zM19.2,15.2H20V16H19.2zM20,15.2H20.8V16H20zM23.2,15.2H24V16H23.2zM26.4,15.2H27.2V16H26.4zM27.2,15.2H28V16H27.2zM28,15.2H28.8V16H28zM28.8,15.2H29.6V16H28.8zM30.4,15.2H31.2V16H30.4zM31.2,15.2H32V16H31.2zM32,15.2H32.8V16H32zM5.6,16H6.4V16.8H5.6zM7.2,16H8V16.8H7.2zM8,16H8.8V16.8H8zM8.8,16H9.6V16.8H8.8zM9.6,16H10.4V16.8H9.6zM10.4,16H11.2V16.8H10.4zM11.2,16H12V16.8H11.2zM12,16H12.8V16.8H12zM12.8,16H13.6V16.8H12.8zM13.6,16H14.4V16.8H13.6zM16,16H16.8V16.8H16zM19.2,16H20V16.8H19.2zM23.2,16H24V16.8H23.2zM24.8,16H25.6V16.8H24.8zM26.4,16H27.2V16.8H26.4zM28,16H28.8V16.8H28zM28.8,16H29.6V16.8H28.8zM29.6,16H30.4V16.8H29.6zM30.4,16H31.2V16.8H30.4zM31.2,16H32V16.8H31.2zM4,16.8H4.8V17.6H4zM4.8,16.8H5.6V17.6H4.8zM6.4,16.8H7.2V17.6H6.4zM8.8,16.8H9.6V17.6H8.8zM10.4,16.8H11.2V17.6H10.4zM16.8,16.8H17.6V17.6H16.8zM17.6,16.8H18.4V17.6H17.6zM18.4,16.8H19.2V17.6H18.4zM20.8,16.8H21.6V17.6H20.8zM22.4,16.8H23.2V17.6H22.4zM23.2,16.8H24V17.6H23.2zM24,16.8H24.8V17.6H24zM25.6,16.8H26.4V17.6H25.6zM27.2,16.8H28V17.6H27.2zM29.6,16.8H30.4V17.6H29.6zM30.4,16.8H31.2V17.6H30.4zM31.2,16.8H32V17.6H31.2zM5.6,17.6H6.4V18.4H5.6zM6.4,17.6H7.2V18.4H6.4zM8,17.6H8.8V18.4H8zM9.6,17.6H10.4V18.4H9.6zM10.4,17.6H11.2V18.4H10.4zM11.2,17.6H12V18.4H11.2zM12,17.6H12.8V18.4H12zM12.8,17.6H13.6V18.4H12.8zM15.2,17.6H16V18.4H15.2zM17.6,17.6H18.4V18.4H17.6zM18.4,17.6H19.2V18.4H18.4zM20.8,17.6H21.6V18.4H20.8zM21.6,17.6H22.4V18.4H21.6zM22.4,17.6H23.2V18.4H22.4zM23.2,17.6H24V18.4H23.2zM24,17.6H24.8V18.4H24zM25.6,17.6H26.4V18.4H25.6zM28.8,17.6H29.6V18.4H28.8zM29.6,17.6H30.4V18.4H29.6zM3.2,18.4H4V19.2H3.2zM5.6,18.4H6.4V19.2H5.6zM6.4,18.4H7.2V19.2H6.4zM11.2,18.4H12V19.2H11.2zM14.4,18.4H15.2V19.2H14.4zM15.2,18.4H16V19.2H15.2zM16,18.4H16.8V19.2H16zM16.8,18.4H17.6V19.2H16.8zM17.6,18.4H18.4V19.2H17.6zM18.4,18.4H19.2V19.2H18.4zM19.2,18.4H20V19.2H19.2zM20,18.4H20.8V19.2H20zM21.6,18.4H22.4V19.2H21.6zM24,18.4H24.8V19.2H24zM27.2,18.4H28V19.2H27.2zM28,18.4H28.8V19.2H28zM28.8,18.4H29.6V19.2H28.8zM31.2,18.4H32V19.2H31.2zM3.2,19.2H4V20H3.2zM4.8,19.2H5.6V20H4.8zM5.6,19.2H6.4V20H5.6zM6.4,19.2H7.2V20H6.4zM8,19.2H8.8V20H8zM11.2,19.2H12V20H11.2zM12,19.2H12.8V20H12zM12.8,19.2H13.6V20H12.8zM14.4,19.2H15.2V20H14.4zM16.8,19.2H17.6V20H16.8zM17.6,19.2H18.4V20H17.6zM19.2,19.2H20V20H19.2zM20,19.2H20.8V20H20zM20.8,19.2H21.6V20H20.8zM22.4,19.2H23.2V20H22.4zM24.8,19.2H25.6V20H24.8zM26.4,19.2H27.2V20H26.4zM27.2,19.2H28V20H27.2zM28,19.2H28.8V20H28zM6.4,20H7.2V20.8H6.4zM9.6,20H10.4V20.8H9.6zM11.2,20H12V20.8H11.2zM14.4,20H15.2V20.8H14.4zM16,20H16.8V20.8H16zM17.6,20H18.4V20.8H17.6zM20,20H20.8V20.8H20zM21.6,20H22.4V20.8H21.6zM23.2,20H24V20.8H23.2zM24.8,20H25.6V20.8H24.8zM25.6,20H26.4V20.8H25.6zM26.4,20H27.2V20.8H26.4zM28,20H28.8V20.8H28zM28.8,20H29.6V20.8H28.8zM31.2,20H32V20.8H31.2zM32,20H32.8V20.8H32zM3.2,20.8H4V21.6H3.2zM7.2,20.8H8V21.6H7.2zM8,20.8H8.8V21.6H8zM9.6,20.8H10.4V21.6H9.6zM10.4,20.8H11.2V21.6H10.4zM11.2,20.8H12V21.6H11.2zM12,20.8H12.8V21.6H12zM16,20.8H16.8V21.6H16zM16.8,20.8H17.6V21.6H16.8zM19.2,20.8H20V21.6H19.2zM21.6,20.8H22.4V21.6H21.6zM24.8,20.8H25.6V21.6H24.8zM26.4,20.8H27.2V21.6H26.4zM28,20.8H28.8V21.6H28zM28.8,20.8H29.6V21.6H28.8zM29.6,20.8H30.4V21.6H29.6zM30.4,20.8H31.2V21.6H30.4zM31.2,20.8H32V21.6H31.2zM4,21.6H4.8V22.4H4zM4.8,21.6H5.6V22.4H4.8zM7.2,21.6H8V22.4H7.2zM12.8,21.6H13.6V22.4H12.8zM13.6,21.6H14.4V22.4H13.6zM14.4,21.6H15.2V22.4H14.4zM16.8,21.6H17.6V22.4H16.8zM17.6,21.6H18.4V22.4H17.6zM20.8,21.6H21.6V22.4H20.8zM22.4,21.6H23.2V22.4H22.4zM24,21.6H24.8V22.4H24zM24.8,21.6H25.6V22.4H24.8zM25.6,21.6H26.4V22.4H25.6zM28,21.6H28.8V22.4H28zM28.8,21.6H29.6V22.4H28.8zM30.4,21.6H31.2V22.4H30.4zM4,22.4H4.8V23.2H4zM4.8,22.4H5.6V23.2H4.8zM8,22.4H8.8V23.2H8zM8.8,22.4H9.6V23.2H8.8zM9.6,22.4H10.4V23.2H9.6zM12,22.4H12.8V23.2H12zM12.8,22.4H13.6V23.2H12.8zM14.4,22.4H15.2V23.2H14.4zM15.2,22.4H16V23.2H15.2zM17.6,22.4H18.4V23.2H17.6zM18.4,22.4H19.2V23.2H18.4zM20.8,22.4H21.6V23.2H20.8zM21.6,22.4H22.4V23.2H21.6zM22.4,22.4H23.2V23.2H22.4zM23.2,22.4H24V23.2H23.2zM24,22.4H24.8V23.2H24zM24.8,22.4H25.6V23.2H24.8zM25.6,22.4H26.4V23.2H25.6zM27.2,22.4H28V23.2H27.2zM28.8,22.4H29.6V23.2H28.8zM29.6,22.4H30.4V23.2H29.6zM30.4,22.4H31.2V23.2H30.4zM32,22.4H32.8V23.2H32zM3.2,23.2H4V24H3.2zM6.4,23.2H7.2V24H6.4zM8.8,23.2H9.6V24H8.8zM9.6,23.2H10.4V24H9.6zM12,23.2H12.8V24H12zM13.6,23.2H14.4V24H13.6zM14.4,23.2H15.2V24H14.4zM16,23.2H16.8V24H16zM16.8,23.2H17.6V24H16.8zM18.4,23.2H19.2V24H18.4zM19.2,23.2H20V24H19.2zM23.2,23.2H24V24H23.2zM26.4,23.2H27.2V24H26.4zM27.2,23.2H28V24H27.2zM28,23.2H28.8V24H28zM28.8,23.2H29.6V24H28.8zM7.2,24H8V24.8H7.2zM8,24H8.8V24.8H8zM11.2,24H12V24.8H11.2zM16,24H16.8V24.8H16zM17.6,24H18.4V24.8H17.6zM19.2,24H20V24.8H19.2zM20,24H20.8V24.8H20zM20.8,24H21.6V24.8H20.8zM23.2,24H24V24.8H23.2zM24.8,24H25.6V24.8H24.8zM28,24H28.8V24.8H28zM30.4,24H31.2V24.8H30.4zM4.8,24.8H5.6V25.6H4.8zM5.6,24.8H6.4V25.6H5.6zM6.4,24.8H7.2V25.6H6.4zM7.2,24.8H8V25.6H7.2zM8.8,24.8H9.6V25.6H8.8zM10.4,24.8H11.2V25.6H10.4zM11.2,24.8H12V25.6H11.2zM12,24.8H12.8V25.6H12zM13.6,24.8H14.4V25.6H13.6zM16.8,24.8H17.6V25.6H16.8zM17.6,24.8H18.4V25.6H17.6zM20,24.8H20.8V25.6H20zM22.4,24.8H23.2V25.6H22.4zM24.8,24.8H25.6V25.6H24.8zM25.6,24.8H26.4V25.6H25.6zM27.2,24.8H28V25.6H27.2zM29.6,24.8H30.4V25.6H29.6zM30.4,24.8H31.2V25.6H30.4zM3.2,25.6H4V26.4H3.2zM4,25.6H4.8V26.4H4zM5.6,25.6H6.4V26.4H5.6zM6.4,25.6H7.2V26.4H6.4zM7.2,25.6H8V26.4H7.2zM8,25.6H8.8V26.4H8zM8.8,25.6H9.6V26.4H8.8zM9.6,25.6H10.4V26.4H9.6zM11.2,25.6H12V26.4H11.2zM13.6,25.6H14.4V26.4H13.6zM14.4,25.6H15.2V26.4H14.4zM15.2,25.6H16V26.4H15.2zM16,25.6H16.8V26.4H16zM17.6,25.6H18.4V26.4H17.6zM18.4,25.6H19.2V26.4H18.4zM19.2,25.6H20V26.4H19.2zM20,25.6H20.8V26.4H20zM20.8,25.6H21.6V26.4H20.8zM21.6,25.6H22.4V26.4H21.6zM22.4,25.6H23.2V26.4H22.4zM25.6,25.6H26.4V26.4H25.6zM26.4,25.6H27.2V26.4H26.4zM27.2,25.6H28V26.4H27.2zM28,25.6H28.8V26.4H28zM28.8,25.6H29.6V26.4H28.8zM29.6,25.6H30.4V26.4H29.6zM31.2,25.6H32V26.4H31.2zM32,25.6H32.8V26.4H32zM9.6,26.4H10.4V27.2H9.6zM10.4,26.4H11.2V27.2H10.4zM12.8,26.4H13.6V27.2H12.8zM13.6,26.4H14.4V27.2H13.6zM14.4,26.4H15.2V27.2H14.4zM16.8,26.4H17.6V27.2H16.8zM17.6,26.4H18.4V27.2H17.6zM20.8,26.4H21.6V27.2H20.8zM21.6,26.4H22.4V27.2H21.6zM22.4,26.4H23.2V27.2H22.4zM24,26.4H24.8V27.2H24zM25.6,26.4H26.4V27.2H25.6zM28.8,26.4H29.6V27.2H28.8zM32,26.4H32.8V27.2H32zM3.2,27.2H4V28H3.2zM4,27.2H4.8V28H4zM4.8,27.2H5.6V28H4.8zM5.6,27.2H6.4V28H5.6zM6.4,27.2H7.2V28H6.4zM7.2,27.2H8V28H7.2zM8,27.2H8.8V28H8zM9.6,27.2H10.4V28H9.6zM12.8,27.2H13.6V28H12.8zM14.4,27.2H15.2V28H14.4zM15.2,27.2H16V28H15.2zM17.6,27.2H18.4V28H17.6zM20,27.2H20.8V28H20zM20.8,27.2H21.6V28H20.8zM21.6,27.2H22.4V28H21.6zM22.4,27.2H23.2V28H22.4zM23.2,27.2H24V28H23.2zM24,27.2H24.8V28H24zM25.6,27.2H26.4V28H25.6zM27.2,27.2H28V28H27.2zM28.8,27.2H29.6V28H28.8zM32,27.2H32.8V28H32zM3.2,28H4V28.8H3.2zM8,28H8.8V28.8H8zM11.2,28H12V28.8H11.2zM12,28H12.8V28.8H12zM12.8,28H13.6V28.8H12.8zM14.4,28H15.2V28.8H14.4zM15.2,28H16V28.8H15.2zM16,28H16.8V28.8H16zM20,28H20.8V28.8H20zM21.6,28H22.4V28.8H21.6zM22.4,28H23.2V28.8H22.4zM23.2,28H24V28.8H23.2zM25.6,28H26.4V28.8H25.6zM28.8,28H29.6V28.8H28.8zM29.6,28H30.4V28.8H29.6zM30.4,28H31.2V28.8H30.4zM31.2,28H32V28.8H31.2zM32,28H32.8V28.8H32zM3.2,28.8H4V29.6H3.2zM4.8,28.8H5.6V29.6H4.8zM5.6,28.8H6.4V29.6H5.6zM6.4,28.8H7.2V29.6H6.4zM8,28.8H8.8V29.6H8zM9.6,28.8H10.4V29.6H9.6zM12.8,28.8H13.6V29.6H12.8zM13.6,28.8H14.4V29.6H13.6zM14.4,28.8H15.2V29.6H14.4zM16,28.8H16.8V29.6H16zM19.2,28.8H20V29.6H19.2zM21.6,28.8H22.4V29.6H21.6zM23.2,28.8H24V29.6H23.2zM25.6,28.8H26.4V29.6H25.6zM26.4,28.8H27.2V29.6H26.4zM27.2,28.8H28V29.6H27.2zM28,28.8H28.8V29.6H28zM28.8,28.8H29.6V29.6H28.8zM29.6,28.8H30.4V29.6H29.6zM30.4,28.8H31.2V29.6H30.4zM31.2,28.8H32V29.6H31.2zM3.2,29.6H4V30.4H3.2zM4.8,29.6H5.6V30.4H4.8zM5.6,29.6H6.4V30.4H5.6zM6.4,29.6H7.2V30.4H6.4zM8,29.6H8.8V30.4H8zM11.2,29.6H12V30.4H11.2zM13.6,29.6H14.4V30.4H13.6zM14.4,29.6H15.2V30.4H14.4zM16.8,29.6H17.6V30.4H16.8zM17.6,29.6H18.4V30.4H17.6zM18.4,29.6H19.2V30.4H18.4zM20.8,29.6H21.6V30.4H20.8zM22.4,29.6H23.2V30.4H22.4zM23.2,29.6H24V30.4H23.2zM24,29.6H24.8V30.4H24zM25.6,29.6H26.4V30.4H25.6zM27.2,29.6H28V30.4H27.2zM28,29.6H28.8V30.4H28zM29.6,29.6H30.4V30.4H29.6zM30.4,29.6H31.2V30.4H30.4zM3.2,30.4H4V31.2H3.2zM4.8,30.4H5.6V31.2H4.8zM5.6,30.4H6.4V31.2H5.6zM6.4,30.4H7.2V31.2H6.4zM8,30.4H8.8V31.2H8zM11.2,30.4H12V31.2H11.2zM12,30.4H12.8V31.2H12zM12.8,30.4H13.6V31.2H12.8zM14.4,30.4H15.2V31.2H14.4zM15.2,30.4H16V31.2H15.2zM17.6,30.4H18.4V31.2H17.6zM18.4,30.4H19.2V31.2H18.4zM20.8,30.4H21.6V31.2H20.8zM21.6,30.4H22.4V31.2H21.6zM22.4,30.4H23.2V31.2H22.4zM26.4,30.4H27.2V31.2H26.4zM27.2,30.4H28V31.2H27.2zM29.6,30.4H30.4V31.2H29.6zM31.2,30.4H32V31.2H31.2zM3.2,31.2H4V32H3.2zM8,31.2H8.8V32H8zM12.8,31.2H13.6V32H12.8zM14.4,31.2H15.2V32H14.4zM15.2,31.2H16V32H15.2zM16,31.2H16.8V32H16zM18.4,31.2H19.2V32H18.4zM19.2,31.2H20V32H19.2zM20,31.2H20.8V32H20zM20.8,31.2H21.6V32H20.8zM21.6,31.2H22.4V32H21.6zM24,31.2H24.8V32H24zM24.8,31.2H25.6V32H24.8zM25.6,31.2H26.4V32H25.6zM27.2,31.2H28V32H27.2zM28.8,31.2H29.6V32H28.8zM31.2,31.2H32V32H31.2zM3.2,32H4V32.8H3.2zM4,32H4.8V32.8H4zM4.8,32H5.6V32.8H4.8zM5.6,32H6.4V32.8H5.6zM6.4,32H7.2V32.8H6.4zM7.2,32H8V32.8H7.2zM8,32H8.8V32.8H8zM9.6,32H10.4V32.8H9.6zM12,32H12.8V32.8H12zM12.8,32H13.6V32.8H12.8zM19.2,32H20V32.8H19.2zM20,32H20.8V32.8H20zM20.8,32H21.6V32.8H20.8zM22.4,32H23.2V32.8H22.4zM24.8,32H25.6V32.8H24.8zM25.6,32H26.4V32.8H25.6zM28,32H28.8V32.8H28zM31.2,32H32V32.8H31.2zM32,32H32.8V32.8H32z" id="qr-path" fill="#000000" fill-opacity="1" fill-rule="nonzero" stroke="none"/></svg>